# xmcd
#
# Track frame offsets:
#	150
#	17860
#	34092
#	52740
#	70512
#	87987
#	106972
#	126012
#	140245
#	154810
#	173327
#	187815
#	205937
#
# Disc length: 2968 seconds
#
# Revision: 2
# Processed by: cddbd v1.5.2PL0 Copyright (c) Steve Scherf et al.
# Submitted via: dBpowerAMP V4.0
#
DISCID=a30b960d
DTITLE=LoneStar - I'm Already There
DYEAR=2001
DGENRE=Country
TTITLE0=Out Go The Lights
TTITLE1=Unusually Unusual
TTITLE2=Not a Day Goes By
TTITLE3=I want to be the One
TTITLE4=With Me
TTITLE5=Without You
TTITLE6=I'm Already There
TTITLE7=Let's Bring It Back
TTITLE8=Must Be Love
TTITLE9=Softly
TTITLE10=Every Little Thing She Does
TTITLE11=Like a Good Cowboy
TTITLE12=No Greater Love
EXTD=
EXTT0=
EXTT1=
EXTT2=
EXTT3=
EXTT4=
EXTT5=
EXTT6=
EXTT7=
EXTT8=
EXTT9=
EXTT10=
EXTT11=
EXTT12=
PLAYORDER=
